<svg width="30.000000" height="30.000000" viewBox="0 0 30 30" fill="none" xmlns="http://www.w3.org/2000/svg" xmlns:xlink="http://www.w3.org/1999/xlink">
	<desc>
			Created with Pixso.
	</desc>
	<defs/>
	<path id="Vector" d="M9 24C7.34961 24 6.01562 25.35 6.01562 27C6.01562 28.65 7.34961 30 9 30C10.6504 30 12 28.65 12 27C12 25.35 10.6504 24 9 24ZM0 0L0 3L3 3L8.40039 14.385L6.375 18.0601C6.13477 18.48 6 18.975 6 19.5C6 21.15 7.34961 22.5 9 22.5L27 22.5L27 19.5L9.63086 19.5C9.41992 19.5 9.25586 19.335 9.25586 19.125L9.30078 18.9449L10.6504 16.5L21.8242 16.5C22.9492 16.5 23.9395 15.885 24.4492 14.955L29.8203 5.21997C29.9395 5.01001 30 4.755 30 4.5C30 3.67505 29.3242 3 28.5 3L6.31445 3L4.9043 0L0 0ZM24 24C22.3496 24 21.0156 25.35 21.0156 27C21.0156 28.65 22.3496 30 24 30C25.6504 30 27 28.65 27 27C27 25.35 25.6504 24 24 24Z" fill="#2D2D2D" fill-opacity="1.000000" fill-rule="nonzero"/>
</svg>
