<svg width="26.234375" height="26.234985" viewBox="0 0 26.2344 26.235" fill="none" xmlns="http://www.w3.org/2000/svg" xmlns:xlink="http://www.w3.org/1999/xlink">
	<desc>
			Created with Pixso.
	</desc>
	<defs/>
	<path id="Vector" d="M18.75 16.5L17.5645 16.5L17.1445 16.095C18.6152 14.385 19.5 12.165 19.5 9.75C19.5 4.36499 15.1348 0 9.75 0C4.36523 0 0 4.36499 0 9.75C0 15.135 4.36523 19.5 9.75 19.5C12.1641 19.5 14.3848 18.615 16.0957 17.145L16.5 17.5649L16.5 18.75L24 26.235L26.2344 24L18.75 16.5ZM9.75 16.5C6.01562 16.5 3 13.485 3 9.75C3 6.01501 6.01562 3 9.75 3C13.4844 3 16.5 6.01501 16.5 9.75C16.5 13.485 13.4844 16.5 9.75 16.5Z" fill="#FFFFFF" fill-opacity="1.000000" fill-rule="nonzero"/>
</svg>
